<?xml version="1.0" encoding="UTF-8" standalone="no"?>
<svg width="100%" height="100%" viewBox="0 0 17842 2867" version="1.1" xmlns="http://www.w3.org/2000/svg"
     xml:space="preserve"
     style="fill-rule:evenodd;clip-rule:evenodd;stroke-linejoin:round;stroke-miterlimit:2;"><g id="Wordmark"><path id="E" d="M16578.7,1258.68l-0,-75.52c-0,-30.267 24.687,-54.938 54.966,-54.938l703.313,0c30.279,0 54.967,24.671 54.967,54.938l-0,20.57c-0,30.292 -24.688,54.95 -54.967,54.95l-758.279,0Zm-30.467,850.692l1142.78,0l0,-360.087l-1057.35,-0c-30.183,-0 -54.966,-24.671 -54.966,-54.938l-0,-75.55l843.712,0c181.584,0 329.625,-148.087 329.625,-329.667l0,-191.354c0,-181.591 -148.041,-329.671 -329.625,-329.671l-874.179,0c-181.579,0 -329.717,148.08 -329.717,329.671l0,681.946c0,181.592 148.138,329.65 329.717,329.65" style="fill:#eee;"/><path
        id="P"
        d="M14849,1756.96l758.371,0c30.188,0 54.971,-24.7 54.971,-54.933l0,-518.862c0,-30.23 -24.783,-54.938 -54.971,-54.938l-703.404,0c-30.187,0 -54.967,24.708 -54.967,54.938l0,573.795Zm1173.43,-659.179l-0,689.625c-0,181.6 -148.134,329.642 -329.717,329.642l-843.713,-0l0,412.771l-360.087,-0l-0,-1432.04c-0,-181.592 148.133,-329.671 329.712,-329.671l874.088,0c181.583,0 329.717,148.079 329.717,329.671Z"
        style="fill:#eee;"/><rect id="I" x="13935.6" y="768.108" width="360.142" height="1341.6" style="fill:#eee;"/><path
        id="P1"
        d="M12567.8,1756.96l758.375,0c30.188,0 54.967,-24.7 54.967,-54.933l-0,-518.862c-0,-30.23 -24.779,-54.938 -54.967,-54.938l-703.404,0c-30.188,0 -54.971,24.708 -54.971,54.938l0,573.795Zm1173.34,-659.179l-0,689.625c-0,181.6 -148.042,329.642 -329.621,329.642l-843.717,-0l0,412.771l-360.096,-0l0,-1432.04c0,-181.592 148.117,-329.671 329.725,-329.671l874.088,0c181.579,0 329.621,148.079 329.621,329.671Z"
        style="fill:#eee;"/><path id="R"
                                  d="M11194.1,800.333c-70.792,21.925 -129.696,56.796 -175.129,103.55c-45.304,46.755 -78.721,107.113 -99.321,179.488c-20.079,70.529 -30.246,156.775 -30.246,256.358l0,778.192l361.754,-0l0,-775.679c0,-49.134 3.696,-90.075 10.963,-121.775c6.733,-29.188 17.433,-52.171 31.962,-68.15c14.396,-15.85 33.546,-26.813 58.509,-33.546c27.208,-7.4 61.679,-11.096 102.62,-11.096l581.925,0l0,-339.567l-590.241,0c-98.529,0 -183.588,10.83 -252.663,32.359l-0.133,-0.134Z"
                                  style="fill:#eee;fill-rule:nonzero;"/><path id="E1"
                                                                              d="M9510.33,1258.68l0,-75.52c0,-30.267 24.692,-54.938 54.971,-54.938l703.313,0c30.279,0 54.966,24.671 54.966,54.938l0,20.57c0,30.292 -24.687,54.95 -54.966,54.95l-758.284,0Zm-30.462,850.692l1142.78,0l-0,-360.087l-1057.34,-0c-30.187,-0 -54.971,-24.671 -54.971,-54.938l0,-75.55l843.717,0c181.579,0 329.621,-148.087 329.621,-329.667l-0,-191.354c-0,-181.591 -148.042,-329.671 -329.621,-329.671l-874.179,0c-181.584,0 -329.717,148.08 -329.717,329.671l0,681.946c0,181.592 148.133,329.65 329.717,329.65"
                                                                              style="fill:#eee;"/><path id="W"
                                                                                                        d="M8565.04,2109.69l-1227.88,-0c-181.584,-0 -329.688,-148.088 -329.688,-329.667l0,-1011.93l360.088,0l-0,615.688l0.046,-0l-0.046,131.412c-0,3.121 -0,6.204 0.046,9.242l-0,170.196c-0,30.225 24.708,54.941 54.941,54.941l355.129,0l0,-981.479l360.109,0l-0,981.479l341.854,0c30.25,0 54.95,-24.716 54.95,-54.941l-0,-170.196c-0,-3.038 0.054,-6.121 0.054,-9.242l-0.054,-131.412l0.054,-0l-0.054,-615.688l360.087,0l0,1011.93c0,181.579 -148.108,329.667 -329.641,329.667Z"
                                                                                                        style="fill:#eee;"/><path
        id="O"
        d="M5621.21,1756.96l758.354,0c30.167,0 54.95,-24.7 54.95,-54.933l0,-518.862c0,-30.23 -24.783,-54.938 -54.95,-54.938l-703.375,0c-30.216,0 -54.979,24.708 -54.979,54.938l0,573.795Zm1173.38,-659.179l-0,689.625c-0,181.6 -148.096,329.642 -329.696,329.642l-871.013,0.875c-184.862,-0 -332.77,-145.721 -332.77,-330.583l-0.001,-689.559c0.001,-181.591 148.117,-329.671 329.696,-329.671l874.088,0c181.6,0 329.696,148.08 329.696,329.671Z"
        style="fill:#eee;"/><path id="P2"
                                  d="M3870.62,1756.96l758.375,0c30.183,0 54.967,-24.7 54.967,-54.933l-0,-518.862c-0,-30.23 -24.784,-54.938 -54.967,-54.938l-703.404,0c-30.188,0 -54.971,24.708 -54.971,54.938l0,573.795Zm1173.34,-659.179l0.001,689.625c-0.001,181.6 -148.042,329.642 -329.621,329.642l-843.717,-0l0,412.771l-360.096,-0l0,-1432.04c0,-181.592 148.117,-329.671 329.725,-329.671l874.088,0c181.579,0 329.621,148.079 329.621,329.671Z"
                                  style="fill:#eee;"/></g>
    <g id="Logo"><g><path d="M944.829,1770.39c-86.429,-0 -165.854,32.533 -165.8,106.225l0.038,21.816l-0.084,86.546c0,142.05 313.909,141.567 313.804,-0.083l0.046,-323.917l-16.783,0.059l-1.879,0.02c-39.121,-1.133 -70.704,-33.562 -70.796,-72.695l0.012,-18.867l-0.066,-91.575l776.687,-0l-0.071,0.067l89.471,0.116l-0.083,91.563l-0,18.879c-0.092,39.108 -31.683,71.504 -70.771,72.583l-1.846,0.034l-16.85,0.033l-0.046,486.862c-0.675,344.963 -284.329,628.613 -629.291,629.292l-430.017,0.046c-344.883,-0.963 -628.375,-284.454 -629.337,-629.338l-0.021,-249.525l0.346,-184.812c0.879,-344.942 284.441,-628.5 629.379,-629.383l282.758,-0c0,-0 0.313,59.8 0,59.825c-53.304,4.57 -89.767,61.062 -90.237,112.295c-0.488,53.196 0.17,175.742 0.17,175.742c0,0 -0.816,127.413 0,179.775c0.817,52.363 40.209,105.15 90.067,114.563c0.304,0.058 0,43.762 0,43.762l-58.8,0.092Z" style="fill:#666;fill-rule:nonzero;"/></g>
        <g><path d="M1928.21,1094.19c86.429,-0 165.854,-32.534 165.796,-106.225l-0.033,-21.817l0.079,-86.546c0,-142.05 -313.904,-141.566 -313.8,0.084l-0.046,323.916l16.779,-0.058l1.879,-0.021c39.121,1.133 70.705,33.563 70.796,72.696l-0.012,18.867l0.071,91.575l-776.688,-0l0.067,-0.067l-89.467,-0.117l0.079,-91.562l0,-18.88c0.092,-39.108 31.688,-71.504 70.775,-72.583l1.842,-0.033l16.85,-0.033l0.05,-486.863c0.675,-344.962 284.325,-628.612 629.288,-629.292l430.02,-0.045c344.88,0.962 628.371,284.454 629.334,629.337l0.021,249.525l-0.342,184.813c-0.883,344.941 -284.442,628.5 -629.383,629.383l-282.755,-0c0,-0 -0.316,-59.8 0,-59.825c53.3,-4.571 89.763,-61.063 90.234,-112.296c0.491,-53.196 -0.171,-175.742 -0.171,-175.742c-0,0 0.817,-127.412 -0,-179.775c-0.817,-52.362 -40.208,-105.15 -90.063,-114.562c-0.304,-0.058 0,-43.763 0,-43.763l58.8,-0.091Z" style="fill:#73ba26;fill-rule:nonzero;"/></g></g></svg>