<?xml version="1.0" encoding="UTF-8" standalone="no"?>
<svg width="100%" height="100%" viewBox="0 0 4282 688" version="1.1" xmlns="http://www.w3.org/2000/svg"
     xmlns:xlink="http://www.w3.org/1999/xlink" xml:space="preserve"
     style="fill-rule:evenodd;clip-rule:evenodd;stroke-linejoin:round;stroke-miterlimit:2;"><g id="Logo"><path d="M226.759,424.894c-20.743,-0 -39.805,7.808 -39.792,25.494l0.009,5.236l-0.02,20.771c0,34.092 75.338,33.976 75.313,-0.02l0.011,-77.74l-4.028,0.014l-0.451,0.005c-9.389,-0.272 -16.969,-8.055 -16.991,-17.447l0.003,-4.528l-0.016,-21.978l186.405,-0l-0.017,0.016l21.473,0.028l-0.02,21.975l0,4.531c-0.022,9.386 -7.604,17.161 -16.985,17.42l-0.443,0.008l-4.044,0.008l-0.011,116.847c-0.162,82.791 -68.239,150.867 -151.03,151.03l-103.204,0.011c-82.772,-0.231 -150.81,-68.269 -151.041,-151.041l-0.005,-59.886l0.083,-44.355c0.211,-82.786 68.266,-150.84 151.051,-151.052l67.862,0c-0,0 0.075,14.352 -0,14.358c-12.793,1.097 -21.544,14.655 -21.657,26.951c-0.117,12.767 0.041,42.178 0.041,42.178c0,-0 -0.196,30.579 0,43.146c0.196,12.567 9.65,25.236 21.616,27.495c0.073,0.014 -0,10.503 -0,10.503l-14.112,0.022Z" style="fill:#222017;fill-rule:nonzero;"/><path
        d="M462.77,262.606c20.743,0 39.805,-7.808 39.791,-25.494l-0.008,-5.236l0.019,-20.771c0,-34.092 -75.337,-33.976 -75.312,0.02l-0.011,77.74l4.027,-0.014l0.451,-0.005c9.389,0.272 16.969,8.055 16.991,17.447l-0.003,4.528l0.017,21.978l-186.405,0l0.016,-0.016l-21.472,-0.028l0.019,-21.975l0,-4.531c0.022,-9.386 7.605,-17.161 16.986,-17.42l0.442,-0.008l4.044,-0.008l0.012,-116.847c0.162,-82.791 68.238,-150.867 151.029,-151.03l103.205,-0.011c82.771,0.231 150.809,68.269 151.04,151.041l0.005,59.886l-0.082,44.355c-0.212,82.786 -68.266,150.84 -151.052,151.052l-67.861,-0c-0,-0 -0.076,-14.352 -0,-14.358c12.792,-1.097 21.543,-14.655 21.656,-26.951c0.118,-12.767 -0.041,-42.178 -0.041,-42.178c0,0 0.196,-30.579 0,-43.146c-0.196,-12.567 -9.65,-25.236 -21.615,-27.495c-0.073,-0.014 -0,-10.503 -0,-10.503l14.112,-0.022Z"
        style="fill:#68a923;fill-rule:nonzero;"/></g>
    <g id="Wordmark"><path id="E" d="M3978.88,303.209l-0,-18.125c-0,-7.264 5.925,-13.185 13.192,-13.185l168.795,-0c7.267,-0 13.192,5.921 13.192,13.185l0,4.937c0,7.27 -5.925,13.188 -13.192,13.188l-181.987,0Zm-7.312,204.166l274.267,0l-0,-86.421l-253.763,0c-7.244,0 -13.192,-5.921 -13.192,-13.185l-0,-18.132l202.491,0c43.58,0 79.11,-35.541 79.11,-79.12l-0,-45.925c-0,-43.582 -35.53,-79.121 -79.11,-79.121l-209.803,-0c-43.579,-0 -79.132,35.539 -79.132,79.121l0,163.667c0,43.582 35.553,79.116 79.132,79.116" style="fill:#222017;"/>
        <path id="P"
              d="M3563.75,422.795l182.009,-0c7.245,-0 13.193,-5.928 13.193,-13.184l-0,-124.527c-0,-7.255 -5.948,-13.185 -13.193,-13.185l-168.817,-0c-7.245,-0 -13.192,5.93 -13.192,13.185l-0,137.711Zm281.623,-158.203l-0,165.51c-0,43.584 -35.552,79.114 -79.132,79.114l-202.491,-0l-0,99.065l-86.421,0l-0,-343.689c-0,-43.582 35.552,-79.121 79.131,-79.121l209.781,-0c43.58,-0 79.132,35.539 79.132,79.121Z"
              style="fill:#222017;"/>
        <rect id="I" x="3344.55" y="185.471" width="86.434" height="321.983" style="fill:#222017;"/>
        <path id="P1"
              d="M3016.26,422.795l182.01,-0c7.245,-0 13.192,-5.928 13.192,-13.184l0,-124.527c0,-7.255 -5.947,-13.185 -13.192,-13.185l-168.817,-0c-7.245,-0 -13.193,5.93 -13.193,13.185l0,137.711Zm281.601,-158.203l0,165.51c0,43.584 -35.53,79.114 -79.109,79.114l-202.492,-0l0,99.065l-86.423,0l-0,-343.689c-0,-43.582 35.548,-79.121 79.134,-79.121l209.781,-0c43.579,-0 79.109,35.539 79.109,79.121Z"
              style="fill:#222017;"/>
        <path id="R"
              d="M2686.59,193.205c-16.99,5.262 -31.127,13.631 -42.031,24.852c-10.873,11.221 -18.893,25.707 -23.837,43.077c-4.819,16.927 -7.259,37.626 -7.259,61.526l-0,186.766l86.821,-0l-0,-186.163c-0,-11.792 0.887,-21.618 2.631,-29.226c1.616,-7.005 4.184,-12.521 7.671,-16.356c3.455,-3.804 8.051,-6.435 14.042,-8.051c6.53,-1.776 14.803,-2.663 24.629,-2.663l139.662,-0l0,-81.496l-141.658,-0c-23.647,-0 -44.061,2.599 -60.639,7.766l-0.032,-0.032Z"
              style="fill:#222017;fill-rule:nonzero;"/>
        <path id="E1"
              d="M2282.48,303.209l0,-18.125c0,-7.264 5.926,-13.185 13.193,-13.185l168.795,-0c7.267,-0 13.192,5.921 13.192,13.185l0,4.937c0,7.27 -5.925,13.188 -13.192,13.188l-181.988,0Zm-7.311,204.166l274.266,0l0,-86.421l-253.762,0c-7.245,0 -13.193,-5.921 -13.193,-13.185l0,-18.132l202.492,0c43.579,0 79.109,-35.541 79.109,-79.12l0,-45.925c0,-43.582 -35.53,-79.121 -79.109,-79.121l-209.803,-0c-43.58,-0 -79.132,35.539 -79.132,79.121l-0,163.667c-0,43.582 35.552,79.116 79.132,79.116"
              style="fill:#222017;"/>
        <path id="W"
              d="M2055.61,507.451l-294.69,0c-43.58,0 -79.125,-35.541 -79.125,-79.12l-0,-242.862l86.421,-0l-0,147.765l0.011,0l-0.011,31.539c-0,0.749 -0,1.489 0.011,2.218l0,40.847c0,7.254 5.93,13.186 13.186,13.186l85.231,-0l0,-235.555l86.426,-0l-0,235.555l82.045,-0c7.26,-0 13.188,-5.932 13.188,-13.186l-0,-40.847c-0,-0.729 0.013,-1.469 0.013,-2.218l-0.013,-31.539l0.013,0l-0.013,-147.765l86.421,-0l-0,242.862c-0,43.579 -35.546,79.12 -79.114,79.12Z"
              style="fill:#222017;"/>
        <path id="O"
              d="M1349.09,422.795l182.005,-0c7.24,-0 13.188,-5.928 13.188,-13.184l0,-124.527c0,-7.255 -5.948,-13.185 -13.188,-13.185l-168.81,-0c-7.252,-0 -13.195,5.93 -13.195,13.185l0,137.711Zm281.612,-158.203l0,165.51c0,43.584 -35.543,79.114 -79.127,79.114l-209.043,0.21c-44.367,-0 -79.865,-34.973 -79.865,-79.34l-0,-165.494c-0,-43.582 35.548,-79.121 79.127,-79.121l209.781,-0c43.584,-0 79.127,35.539 79.127,79.121Z"
              style="fill:#222017;"/>
        <path id="P2"
              d="M928.95,422.795l182.01,-0c7.244,-0 13.192,-5.928 13.192,-13.184l0,-124.527c0,-7.255 -5.948,-13.185 -13.192,-13.185l-168.817,-0c-7.245,-0 -13.193,5.93 -13.193,13.185l0,137.711Zm281.601,-158.203l-0,165.51c-0,43.584 -35.53,79.114 -79.109,79.114l-202.492,-0l0,99.065l-86.423,0l-0,-343.689c-0,-43.582 35.548,-79.121 79.134,-79.121l209.781,-0c43.579,-0 79.109,35.539 79.109,79.121Z"
              style="fill:#222017;"/></g></svg>