<?xml version="1.0" encoding="UTF-8" standalone="no"?>
<svg width="100%" height="100%" viewBox="0 0 691 690" version="1.1" xmlns="http://www.w3.org/2000/svg"
     xmlns:xlink="http://www.w3.org/1999/xlink" xml:space="preserve"
     style="fill-rule:evenodd;clip-rule:evenodd;stroke-linejoin:round;stroke-miterlimit:2;">
    <g id="Artboard1" transform="matrix(0.919513,0,0,0.921025,47.3414,48.7073)">
        <rect x="-51.485" y="-52.884" width="750.877" height="748.935" style="fill:none;"/>
        <g transform="matrix(1.08753,0,0,1.08575,-51.1048,-52.2363)">
            <path d="M447.155,447.254L447.155,515.536C447.155,515.548 447.155,515.561 447.155,515.573C446.972,609.306 369.897,686.379 276.164,686.564C276.152,686.564 276.14,686.564 276.127,686.564L172.923,686.575C172.904,686.575 172.885,686.575 172.865,686.575C79.164,686.313 2.142,609.291 1.88,515.59C1.88,515.572 1.88,515.554 1.88,515.536L1.958,411.256L1.958,411.242C2.197,317.523 79.24,240.481 172.958,240.241C172.975,240.241 172.992,240.241 173.009,240.241L242.364,240.247L242.374,171.964C242.374,171.952 242.374,171.939 242.374,171.927C242.557,78.194 319.631,1.121 413.364,0.936C413.376,0.936 413.388,0.936 413.401,0.936L516.606,0.925C516.625,0.925 516.645,0.925 516.664,0.925C610.364,1.187 687.386,78.209 687.648,171.91C687.648,171.928 687.648,171.946 687.648,171.964L687.571,276.244L687.571,276.258C687.331,369.977 610.289,447.019 516.57,447.259C516.553,447.259 516.536,447.259 516.519,447.259L447.155,447.254Z"
                  style="fill:white;"/>
        </g>
        <g transform="matrix(1.08753,0,0,1.08575,-51.1048,-52.2363)">
            <path d="M226.759,424.894C206.016,424.894 186.954,432.702 186.967,450.388L186.976,455.624L186.956,476.395C186.956,510.487 262.294,510.371 262.269,476.375L262.28,398.635L258.252,398.649L257.801,398.654C248.412,398.382 240.832,390.599 240.81,381.207L240.813,376.679L240.797,354.701L427.202,354.701L427.185,354.717L448.658,354.745L448.638,376.72L448.638,381.251C448.616,390.637 441.034,398.412 431.653,398.671L431.21,398.679L427.166,398.687L427.155,515.534C426.993,598.325 358.916,666.401 276.125,666.564L172.921,666.575C90.149,666.344 22.111,598.306 21.88,515.534L21.875,455.648L21.958,411.293C22.169,328.507 90.224,260.453 173.009,260.241L240.871,260.241C240.871,260.241 240.946,274.593 240.871,274.599C228.078,275.696 219.327,289.254 219.214,301.55C219.097,314.317 219.255,343.728 219.255,343.728C219.255,343.728 219.059,374.307 219.255,386.874C219.451,399.441 228.905,412.11 240.871,414.369C240.944,414.383 240.871,424.872 240.871,424.872L226.759,424.894Z"
                  style="fill:rgb(34,32,23);fill-rule:nonzero;"/>
        </g>
        <g transform="matrix(1.08753,0,0,1.08575,-51.1048,-52.2363)">
            <path d="M462.77,262.606C483.513,262.606 502.575,254.798 502.561,237.112L502.553,231.876L502.572,211.105C502.572,177.013 427.235,177.129 427.26,211.125L427.249,288.865L431.276,288.851L431.727,288.846C441.116,289.118 448.696,296.901 448.718,306.293L448.715,310.821L448.732,332.799L262.327,332.799L262.343,332.783L240.871,332.755L240.89,310.78L240.89,306.249C240.912,296.863 248.495,289.088 257.876,288.829L258.318,288.821L262.362,288.813L262.374,171.966C262.536,89.175 330.612,21.099 413.403,20.936L516.608,20.925C599.379,21.156 667.417,89.194 667.648,171.966L667.653,231.852L667.571,276.207C667.359,358.993 599.305,427.047 516.519,427.259L448.658,427.259C448.658,427.259 448.582,412.907 448.658,412.901C461.45,411.804 470.201,398.246 470.314,385.95C470.432,373.183 470.273,343.772 470.273,343.772C470.273,343.772 470.469,313.193 470.273,300.626C470.077,288.059 460.623,275.39 448.658,273.131C448.585,273.117 448.658,262.628 448.658,262.628L462.77,262.606Z"
                  style="fill:rgb(104,169,35);fill-rule:nonzero;"/>
        </g>
    </g>
</svg>
