<?xml version="1.0" encoding="UTF-8" standalone="no"?>
<svg width="100%" height="100%" viewBox="0 0 11350 11350" version="1.1" xmlns="http://www.w3.org/2000/svg"
     xml:space="preserve"
     style="fill-rule:evenodd;clip-rule:evenodd;stroke-linejoin:round;stroke-miterlimit:2;"><rect id="Powerpipe" x="0" y="0" width="11350" height="11350" style="fill:none;"/>
    <g id="Powerpipe1"><g id="Logo"><path d="M3628.32,7082.36c-359.768,-0 -690.38,135.422 -690.154,442.169l0.156,90.813l-0.347,360.253c-0,591.293 1306.66,589.281 1306.23,-0.347l0.19,-1348.33l-69.861,0.243l-7.823,0.087c-162.843,-4.718 -294.311,-139.707 -294.692,-302.602l0.052,-78.533l-0.278,-381.188l3233.02,0l-0.295,0.278l372.429,0.486l-0.347,381.135l-0,78.585c-0.382,162.792 -131.884,297.641 -294.589,302.133l-7.683,0.139l-70.14,0.139l-0.19,2026.6c-2.81,1435.93 -1183.54,2616.64 -2619.47,2619.47l-1789.98,0.191c-1435.6,-4.007 -2615.65,-1184.06 -2619.66,-2619.66l-0.086,-1038.66l1.439,-769.294c3.66,-1435.84 1184.01,-2616.17 2619.84,-2619.85l1177,0c-0,0 1.301,248.922 -0,249.026c-221.883,19.026 -373.66,254.177 -375.62,467.439c-2.029,221.431 0.711,731.536 0.711,731.536c0,0 -3.399,530.364 0,748.326c3.399,217.962 167.37,437.694 374.909,476.874c1.266,0.243 -0,182.164 -0,182.164l-244.759,0.382Z" style="fill:#222017;fill-rule:nonzero;"/><path
            d="M7721.7,4267.64c359.767,0 690.379,-135.422 690.136,-442.169l-0.138,-90.813l0.329,-360.253c0,-591.293 -1306.65,-589.281 -1306.21,0.347l-0.191,1348.33l69.844,-0.243l7.823,-0.087c162.843,4.718 294.311,139.707 294.692,302.602l-0.052,78.533l0.295,381.188l-3233.02,-0l0.278,-0.278l-372.411,-0.486l0.329,-381.135l0,-78.585c0.382,-162.792 131.902,-297.641 294.606,-302.133l7.666,-0.139l70.14,-0.139l0.208,-2026.6c2.809,-1435.93 1183.52,-2616.64 2619.45,-2619.47l1789.99,-0.191c1435.58,4.007 2615.64,1184.06 2619.64,2619.66l0.086,1038.66l-1.422,769.294c-3.677,1435.84 -1184.01,2616.17 -2619.85,2619.85l-1176.98,-0c-0,-0 -1.319,-248.922 -0,-249.026c221.865,-19.026 373.642,-254.177 375.602,-467.439c2.047,-221.431 -0.711,-731.536 -0.711,-731.536c-0,-0 3.399,-530.364 -0,-748.326c-3.399,-217.962 -167.37,-437.694 -374.891,-476.874c-1.267,-0.243 -0,-182.164 -0,-182.164l244.759,-0.382Z"
            style="fill:#68a923;fill-rule:nonzero;"/></g></g></svg>