<?xml version="1.0" encoding="UTF-8" standalone="no"?>
<svg width="100%" height="100%" viewBox="0 0 11350 11350" version="1.1" xmlns="http://www.w3.org/2000/svg"
     xml:space="preserve"
     style="fill-rule:evenodd;clip-rule:evenodd;stroke-linejoin:round;stroke-miterlimit:2;"><rect id="Powerpipe" x="0" y="0" width="11350" height="11350" style="fill:none;"/>
    <g id="Powerpipe1"><g id="Logo-Darkmode"><g><path d="M3626.3,7083.76c-360.119,0 -691.056,135.541 -690.831,442.624l0.158,90.875l-0.35,360.625c0,591.874 1307.94,589.832 1307.53,-0.375l0.167,-1349.62l-69.916,0.25l-7.834,0.083c-162.999,-4.75 -294.582,-139.875 -294.957,-302.916l0.042,-78.625l-0.292,-381.541l3236.2,0l-0.291,0.292l372.79,0.458l-0.333,381.499l-0,78.667c-0.417,162.958 -132.042,297.958 -294.916,302.458l-7.667,0.125l-70.208,0.125l-0.208,2028.62c-2.792,1437.33 -1184.7,2619.2 -2622.03,2622.04l-1791.73,0.167c-1437.01,-4 -2618.22,-1185.21 -2622.23,-2622.2l-0.087,-1039.71l1.442,-770.041c3.662,-1437.25 1185.17,-2618.74 2622.4,-2622.41l1178.16,0c-0,0 1.291,249.166 -0,249.25c-222.104,19.041 -374.032,254.416 -375.991,467.916c-2.033,221.624 0.709,732.248 0.709,732.248c-0,0 -3.4,530.874 -0,749.041c3.404,218.208 167.536,438.124 375.282,477.374c1.25,0.208 -0,182.333 -0,182.333l-245.004,0.375Z" style="fill:#666;fill-rule:nonzero;"/></g><g><path d="M7723.71,4266.26c360.124,-0 691.04,-135.542 690.831,-442.604l-0.166,-90.904l0.333,-360.608c0,-591.874 -1307.91,-589.857 -1307.5,0.35l-0.166,1349.64l69.916,-0.25l7.792,-0.083c163.041,4.75 294.624,139.874 294.999,302.916l-0.042,78.625l0.292,381.541l-3236.2,-0l0.292,-0.292l-372.79,-0.458l0.333,-381.541l-0,-78.625c0.375,-162.958 132.041,-297.958 294.916,-302.458l7.666,-0.125l70.208,-0.125l0.209,-2028.61c2.791,-1437.34 1184.66,-2619.21 2622.03,-2622.05l1791.7,-0.188c1437,4.009 2618.24,1185.22 2622.24,2622.23l0.083,1039.68l-1.417,770.049c-3.708,1437.25 -1185.16,2618.75 -2622.45,2622.41l-1178.12,-0c0,-0 -1.333,-249.167 0,-249.25c222.083,-19.042 373.999,-254.416 375.957,-467.916c2.042,-221.624 -0.708,-732.249 -0.708,-732.249c-0,0 3.416,-530.874 -0,-749.04c-3.375,-218.208 -167.5,-438.124 -375.249,-477.374c-1.25,-0.209 0,-182.333 0,-182.333l244.999,-0.375Z" style="fill:#73ba26;fill-rule:nonzero;"/></g></g></g></svg>